<svg xmlns="http://www.w3.org/2000/svg" xmlns:xlink="http://www.w3.org/1999/xlink" width="1682" zoomAndPan="magnify" viewBox="0 0 1261.5 275.999989" height="368" preserveAspectRatio="xMidYMid meet" version="1.0"><defs><filter x="0%" y="0%" width="100%" height="100%" id="4984528d0c"><feColorMatrix values="0 0 0 0 1 0 0 0 0 1 0 0 0 0 1 0 0 0 1 0" color-interpolation-filters="sRGB"/></filter><g/><clipPath id="96eaa98bb7"><path d="M 0 0.0546875 L 1261 0.0546875 L 1261 275.945312 L 0 275.945312 Z M 0 0.0546875 " clip-rule="nonzero"/></clipPath><clipPath id="aabaf559e3"><path d="M 0 0.0546875 L 275.890625 0.0546875 L 275.890625 275.945312 L 0 275.945312 Z M 0 0.0546875 " clip-rule="nonzero"/></clipPath><mask id="edbe60153c"><g filter="url(#4984528d0c)"><rect x="-126.15" width="1513.8" fill="#000000" y="-27.599999" height="331.199987" fill-opacity="0.3"/></g></mask><clipPath id="da0cf214ff"><path d="M 0.136719 0.675781 L 33.484375 0.675781 L 33.484375 34.019531 L 0.136719 34.019531 Z M 0.136719 0.675781 " clip-rule="nonzero"/></clipPath><clipPath id="0b0fe16ab1"><rect x="0" width="34" y="0" height="35"/></clipPath><clipPath id="a9bb2d23db"><path d="M 311 0.0546875 L 1071 0.0546875 L 1071 275.945312 L 311 275.945312 Z M 311 0.0546875 " clip-rule="nonzero"/></clipPath><clipPath id="4c85f45e62"><rect x="0" width="760" y="0" height="276"/></clipPath></defs><g clip-path="url(#96eaa98bb7)"><path fill="#ffffff" d="M 0 0.0546875 L 1261 0.0546875 L 1261 275.945312 L 0 275.945312 Z M 0 0.0546875 " fill-opacity="1" fill-rule="nonzero"/><path fill="#ffffff" d="M 0 0.0546875 L 1261 0.0546875 L 1261 275.945312 L 0 275.945312 Z M 0 0.0546875 " fill-opacity="1" fill-rule="nonzero"/></g><path fill="#10b981" d="M 137.945312 13.847656 L 248.300781 55.234375 L 248.300781 138 C 248.300781 206.972656 137.945312 262.152344 137.945312 262.152344 C 137.945312 262.152344 27.589844 206.972656 27.589844 138 L 27.589844 55.234375 Z M 137.945312 13.847656 " fill-opacity="0.2" fill-rule="nonzero"/><g clip-path="url(#aabaf559e3)"><path stroke-linecap="butt" transform="matrix(2.758906, 0, 0, 2.758906, 0.000000000000042616, 0.0546696)" fill="none" stroke-linejoin="miter" d="M 49.999998 4.99944 L 89.999712 20.000572 L 89.999712 50.000004 C 89.999712 75.000003 49.999998 95.000568 49.999998 95.000568 C 49.999998 95.000568 10.000283 75.000003 10.000283 50.000004 L 10.000283 20.000572 Z M 49.999998 4.99944 " stroke="#10b981" stroke-width="3" stroke-opacity="1" stroke-miterlimit="4"/></g><path stroke-linecap="round" transform="matrix(2.758906, 0, 0, 2.758906, 0.000000000000042616, 0.0546696)" fill="none" stroke-linejoin="round" d="M 29.999432 50.000004 L 45.000564 64.99972 L 70.000563 35.000288 " stroke="#10b981" stroke-width="6" stroke-opacity="1" stroke-miterlimit="4"/><path stroke-linecap="butt" transform="matrix(2.758906, 0, 0, 2.758906, 0.000000000000042616, 0.0546696)" fill="none" stroke-linejoin="miter" d="M 64.999714 47.999381 C 64.999714 48.490688 64.975644 48.981994 64.927504 49.470469 C 64.879365 49.958944 64.807156 50.444587 64.712292 50.925982 C 64.616013 51.408794 64.49708 51.884526 64.354077 52.354594 C 64.211075 52.824663 64.046834 53.286236 63.858523 53.74073 C 63.670213 54.193808 63.460664 54.638391 63.228462 55.071647 C 62.997675 55.504903 62.74565 55.925416 62.472388 56.333186 C 62.199125 56.742372 61.907456 57.135984 61.594549 57.515437 C 61.283058 57.896305 60.954576 58.258768 60.606272 58.607072 C 60.259384 58.95396 59.895506 59.283857 59.516053 59.595348 C 59.1366 59.906839 58.741573 60.198508 58.333802 60.471771 C 57.924616 60.745034 57.504103 60.997059 57.070847 61.229261 C 56.637591 61.460048 56.194424 61.669596 55.73993 61.857907 C 55.286852 62.046217 54.823863 62.211874 54.353795 62.353461 C 53.883726 62.496464 53.407994 62.615397 52.926599 62.711676 C 52.445203 62.807955 51.95956 62.880164 51.46967 62.928304 C 50.981195 62.976443 50.491304 63.000513 49.999998 63.000513 C 49.508691 63.000513 49.0188 62.976443 48.530326 62.928304 C 48.040435 62.880164 47.554792 62.807955 47.073396 62.711676 C 46.592001 62.615397 46.116269 62.496464 45.6462 62.353461 C 45.176132 62.211874 44.713143 62.046217 44.260065 61.857907 C 43.805571 61.669596 43.362404 61.460048 42.929148 61.229261 C 42.495892 60.997059 42.075379 60.745034 41.666193 60.471771 C 41.258422 60.198508 40.863395 59.906839 40.483942 59.595348 C 40.104489 59.283857 39.740611 58.95396 39.393723 58.607072 C 39.045419 58.258768 38.716938 57.896305 38.405446 57.515437 C 38.092539 57.135984 37.80087 56.742372 37.527608 56.333186 C 37.254345 55.925416 37.00232 55.504903 36.771534 55.071647 C 36.539331 54.638391 36.329782 54.193808 36.141472 53.74073 C 35.953161 53.286236 35.788921 52.824663 35.645918 52.354594 C 35.502915 51.884526 35.383982 51.408794 35.287703 50.925982 C 35.19284 50.444587 35.12063 49.958944 35.072491 49.470469 C 35.024351 48.981994 35.000281 48.490688 35.000281 47.999381 C 35.000281 47.508075 35.024351 47.018184 35.072491 46.529709 C 35.12063 46.041234 35.19284 45.555591 35.287703 45.074196 C 35.383982 44.591385 35.502915 44.115653 35.645918 43.645584 C 35.788921 43.175516 35.953161 42.713942 36.141472 42.259448 C 36.329782 41.80637 36.539331 41.361787 36.771534 40.928531 C 37.00232 40.495276 37.254345 40.074762 37.527608 39.666992 C 37.80087 39.257806 38.092539 38.864194 38.405446 38.484742 C 38.716938 38.103873 39.045419 37.74141 39.393723 37.393107 C 39.740611 37.046219 40.104489 36.716321 40.483942 36.40483 C 40.863395 36.093339 41.258422 35.800254 41.666193 35.528407 C 42.075379 35.255144 42.495892 35.00312 42.929148 34.770917 C 43.362404 34.540131 43.805571 34.329166 44.260065 34.142271 C 44.713143 33.953961 45.176132 33.788304 45.6462 33.645301 C 46.116269 33.503714 46.592001 33.383366 47.073396 33.288502 C 47.554792 33.192223 48.040435 33.120014 48.530326 33.071874 C 49.0188 33.023735 49.508691 32.999665 49.999998 32.999665 C 50.491304 32.999665 50.981195 33.023735 51.46967 33.071874 C 51.95956 33.120014 52.445203 33.192223 52.926599 33.288502 C 53.407994 33.383366 53.883726 33.503714 54.353795 33.645301 C 54.823863 33.788304 55.286852 33.953961 55.73993 34.142271 C 56.194424 34.329166 56.637591 34.540131 57.070847 34.770917 C 57.504103 35.00312 57.924616 35.255144 58.333802 35.528407 C 58.741573 35.800254 59.1366 36.093339 59.516053 36.40483 C 59.895506 36.716321 60.259384 37.046219 60.606272 37.393107 C 60.954576 37.74141 61.283058 38.103873 61.594549 38.484742 C 61.907456 38.864194 62.199125 39.257806 62.472388 39.666992 C 62.74565 40.074762 62.997675 40.495276 63.228462 40.928531 C 63.460664 41.361787 63.670213 41.80637 63.858523 42.259448 C 64.046834 42.713942 64.211075 43.175516 64.354077 43.645584 C 64.49708 44.115653 64.616013 44.591385 64.712292 45.074196 C 64.807156 45.555591 64.879365 46.041234 64.927504 46.529709 C 64.975644 47.018184 64.999714 47.508075 64.999714 47.999381 Z M 64.999714 47.999381 " stroke="#10b981" stroke-width="2" stroke-opacity="0.3" stroke-miterlimit="4"/><g mask="url(#edbe60153c)"><g transform="matrix(1, 0, 0, 1, 157, 151)"><g clip-path="url(#0b0fe16ab1)"><path fill="#000000" d="M 3.015625 3.554688 L 30.605469 31.140625 " fill-opacity="1" fill-rule="nonzero"/><g clip-path="url(#da0cf214ff)"><path stroke-linecap="round" transform="matrix(2.758906, 0, 0, 2.758906, -157, -150.94533)" fill="none" stroke-linejoin="miter" d="M 57.999657 56.000457 L 67.99994 65.999324 " stroke="#10b981" stroke-width="2" stroke-opacity="1" stroke-miterlimit="4"/></g></g></g></g><g clip-path="url(#a9bb2d23db)"><g transform="matrix(1, 0, 0, 1, 311, -0.000000000000021386)"><g clip-path="url(#4c85f45e62)"><g fill="#ffffff" fill-opacity="1"><g transform="translate(0.377441, 211.447459)"><g><path d="M 139.453125 43.6875 C 124.015625 43.6875 111.191406 39.960938 100.984375 32.515625 C 90.785156 25.078125 83.925781 14.71875 80.40625 1.4375 C 67.050781 -0.476562 55.390625 -5.015625 45.421875 -12.171875 C 35.460938 -19.335938 27.703125 -29.238281 22.140625 -41.875 C 16.578125 -54.519531 13.796875 -69.804688 13.796875 -87.734375 C 13.796875 -107.816406 17.273438 -124.597656 24.234375 -138.078125 C 31.203125 -151.554688 40.828125 -161.578125 53.109375 -168.140625 C 65.390625 -174.703125 79.570312 -177.984375 95.65625 -177.984375 C 111.738281 -177.984375 125.898438 -174.722656 138.140625 -168.203125 C 150.378906 -161.679688 159.957031 -151.660156 166.875 -138.140625 C 173.800781 -124.617188 177.265625 -107.816406 177.265625 -87.734375 C 177.265625 -61.492188 171.644531 -41.347656 160.40625 -27.296875 C 149.164062 -13.253906 133.382812 -4.515625 113.0625 -1.078125 L 112.453125 1.3125 C 114.929688 5.5625 118.628906 8.820312 123.546875 11.09375 C 128.472656 13.375 134.21875 14.515625 140.78125 14.515625 C 146.0625 14.515625 150.820312 13.835938 155.0625 12.484375 L 157.46875 12.96875 L 162.390625 40.09375 C 159.828125 41.050781 156.382812 41.890625 152.0625 42.609375 C 147.738281 43.328125 143.535156 43.6875 139.453125 43.6875 Z M 95.65625 -27.609375 C 110.539062 -27.609375 121.898438 -32.382812 129.734375 -41.9375 C 137.578125 -51.5 141.5 -66.765625 141.5 -87.734375 C 141.5 -108.691406 137.578125 -123.972656 129.734375 -133.578125 C 121.898438 -143.179688 110.539062 -147.984375 95.65625 -147.984375 C 80.695312 -147.984375 69.273438 -143.179688 61.390625 -133.578125 C 53.503906 -123.972656 49.5625 -108.691406 49.5625 -87.734375 C 49.5625 -66.765625 53.503906 -51.5 61.390625 -41.9375 C 69.273438 -32.382812 80.695312 -27.609375 95.65625 -27.609375 Z M 95.65625 -27.609375 "/></g></g></g><g fill="#ffffff" fill-opacity="1"><g transform="translate(191.084321, 211.447459)"><g><path d="M 83.765625 0 L 45 0 L 4.796875 -175.46875 L 39.359375 -175.46875 L 65.890625 -52.09375 L 68.890625 -52.09375 L 100.328125 -175.46875 L 129.984375 -175.46875 L 162.03125 -52.09375 L 165.03125 -52.09375 L 191.671875 -175.46875 L 225.03125 -175.46875 L 184.953125 0 L 146.0625 0 L 115.34375 -113.171875 L 112.8125 -113.171875 Z M 83.765625 0 "/></g></g></g><g fill="#ffffff" fill-opacity="1"><g transform="translate(420.796741, 211.447459)"><g><path d="M 57.484375 -77.046875 L 57.484375 -29.046875 L 141.265625 -29.046875 L 141.265625 0 L 22.796875 0 L 22.796875 -175.46875 L 139.34375 -175.46875 L 139.34375 -146.421875 L 57.484375 -146.421875 L 57.484375 -105.375 L 129.015625 -105.375 L 129.015625 -77.046875 Z M 57.484375 -77.046875 "/></g></g></g><g fill="#ffffff" fill-opacity="1"><g transform="translate(571.657991, 211.447459)"><g><path d="M 85.9375 -175.46875 C 114.414062 -175.46875 136.15625 -168.101562 151.15625 -153.375 C 166.164062 -138.65625 173.671875 -116.773438 173.671875 -87.734375 C 173.671875 -58.765625 166.164062 -36.898438 151.15625 -22.140625 C 136.15625 -7.378906 114.414062 0 85.9375 0 L 22.796875 0 L 22.796875 -175.46875 Z M 83.890625 -29.171875 C 101.972656 -29.171875 115.492188 -33.789062 124.453125 -43.03125 C 133.421875 -52.269531 137.90625 -67.171875 137.90625 -87.734375 C 137.90625 -108.296875 133.421875 -123.195312 124.453125 -132.4375 C 115.492188 -141.675781 101.972656 -146.296875 83.890625 -146.296875 L 57.484375 -146.296875 L 57.484375 -29.171875 Z M 83.890625 -29.171875 "/></g></g></g></g></g></g></svg>