<svg xmlns="http://www.w3.org/2000/svg" xmlns:xlink="http://www.w3.org/1999/xlink" width="1682" zoomAndPan="magnify" viewBox="0 0 1261.5 275.999989" height="368" preserveAspectRatio="xMidYMid meet" version="1.0"><defs><filter x="0%" y="0%" width="100%" height="100%" id="04ff253898"><feColorMatrix values="0 0 0 0 1 0 0 0 0 1 0 0 0 0 1 0 0 0 1 0" color-interpolation-filters="sRGB"/></filter><g/><clipPath id="5b169aaa4f"><path d="M 0 0.0546875 L 282.855469 0.0546875 L 282.855469 275.945312 L 0 275.945312 Z M 0 0.0546875 " clip-rule="nonzero"/></clipPath><mask id="5dbcc75096"><g filter="url(#04ff253898)"><rect x="-126.15" width="1513.8" fill="#000000" y="-27.599999" height="331.199987" fill-opacity="0.3"/></g></mask><clipPath id="a98041e53c"><path d="M 0.578125 0.914062 L 35.601562 0.914062 L 35.601562 35.699219 L 0.578125 35.699219 Z M 0.578125 0.914062 " clip-rule="nonzero"/></clipPath><clipPath id="d3efbef310"><rect x="0" width="36" y="0" height="36"/></clipPath></defs><path fill="#10b981" d="M 138.542969 7.640625 L 253.996094 50.9375 L 253.996094 137.527344 C 253.996094 209.6875 138.542969 267.414062 138.542969 267.414062 C 138.542969 267.414062 23.085938 209.6875 23.085938 137.527344 L 23.085938 50.9375 Z M 138.542969 7.640625 " fill-opacity="0.2" fill-rule="nonzero"/><g clip-path="url(#5b169aaa4f)"><path stroke-linecap="butt" transform="matrix(2.886356, 0, 0, 2.886356, -5.776171, -6.789676)" fill="none" stroke-linejoin="miter" d="M 50.000466 4.999488 L 90.000082 20.00002 L 90.000082 49.999732 C 90.000082 75.000168 50.000466 94.999976 50.000466 94.999976 C 50.000466 94.999976 9.999497 75.000168 9.999497 49.999732 L 9.999497 20.00002 Z M 50.000466 4.999488 " stroke="#10b981" stroke-width="3" stroke-opacity="1" stroke-miterlimit="4"/></g><path stroke-linecap="round" transform="matrix(2.886356, 0, 0, 2.886356, -5.776171, -6.789676)" fill="none" stroke-linejoin="round" d="M 30.000659 49.999732 L 44.999838 65.000265 L 70.000274 35.000553 " stroke="#10b981" stroke-width="6" stroke-opacity="1" stroke-miterlimit="4"/><path stroke-linecap="butt" transform="matrix(2.886356, 0, 0, 2.886356, -5.776171, -6.789676)" fill="none" stroke-linejoin="miter" d="M 64.999646 47.999481 C 64.999646 48.490747 64.975285 48.982013 64.927918 49.470572 C 64.879197 49.959132 64.80747 50.444984 64.711382 50.926777 C 64.615294 51.40857 64.496199 51.883595 64.354098 52.354561 C 64.211996 52.824174 64.045534 53.287019 63.858771 53.740392 C 63.670656 54.193764 63.460887 54.637663 63.229464 55.070735 C 62.996687 55.503807 62.744964 55.924699 62.471588 56.333411 C 62.199564 56.742122 61.907241 57.135947 61.594617 57.516239 C 61.283346 57.895177 60.954482 58.259228 60.606671 58.607039 C 60.25886 58.953496 59.896162 59.283714 59.515871 59.594984 C 59.13558 59.906255 58.741755 60.198578 58.333043 60.471955 C 57.925685 60.745332 57.504793 60.997055 57.070367 61.228478 C 56.637295 61.459901 56.19475 61.66967 55.740024 61.857786 C 55.286652 62.045901 54.823806 62.21101 54.354194 62.354465 C 53.884581 62.496567 53.408202 62.615662 52.926409 62.71175 C 52.444617 62.807837 51.958764 62.879565 51.470205 62.928286 C 50.981645 62.975653 50.491733 63.000013 50.000466 63.000013 C 49.5092 63.000013 49.019288 62.975653 48.529375 62.928286 C 48.040815 62.879565 47.554963 62.807837 47.07317 62.71175 C 46.591378 62.615662 46.116352 62.496567 45.645386 62.354465 C 45.175773 62.21101 44.714281 62.045901 44.259555 61.857786 C 43.806183 61.66967 43.362284 61.459901 42.929212 61.228478 C 42.49614 60.997055 42.075248 60.745332 41.666537 60.471955 C 41.257825 60.198578 40.864 59.906255 40.483709 59.594984 C 40.10477 59.283714 39.740719 58.953496 39.392908 58.607039 C 39.046451 58.259228 38.716233 57.895177 38.404963 57.516239 C 38.093692 57.135947 37.801369 56.742122 37.527992 56.333411 C 37.254615 55.924699 37.002892 55.503807 36.771469 55.070735 C 36.540046 54.637663 36.330277 54.193764 36.142161 53.740392 C 35.954046 53.287019 35.788937 52.824174 35.645482 52.354561 C 35.50338 51.883595 35.384285 51.40857 35.288197 50.926777 C 35.19211 50.444984 35.120382 49.959132 35.071661 49.470572 C 35.024294 48.982013 34.999934 48.490747 34.999934 47.999481 C 34.999934 47.508215 35.024294 47.018302 35.071661 46.529742 C 35.120382 46.041183 35.19211 45.55533 35.288197 45.073538 C 35.384285 44.591745 35.50338 44.115366 35.645482 43.645753 C 35.788937 43.176141 35.954046 42.713295 36.142161 42.259923 C 36.330277 41.806551 36.540046 41.362652 36.771469 40.92958 C 37.002892 40.495154 37.254615 40.074262 37.527992 39.666904 C 37.801369 39.258192 38.093692 38.864367 38.404963 38.484076 C 38.716233 38.103785 39.046451 37.741087 39.392908 37.393276 C 39.740719 37.045465 40.10477 36.716601 40.483709 36.40533 C 40.864 36.092706 41.257825 35.800383 41.666537 35.528359 C 42.075248 35.254983 42.49614 35.00326 42.929212 34.771837 C 43.362284 34.53906 43.806183 34.329291 44.259555 34.141176 C 44.714281 33.954413 45.175773 33.787951 45.645386 33.645849 C 46.116352 33.503748 46.591378 33.384653 47.07317 33.288565 C 47.554963 33.192477 48.040815 33.12075 48.529375 33.072029 C 49.019288 33.024662 49.5092 33.000301 50.000466 33.000301 C 50.491733 33.000301 50.981645 33.024662 51.470205 33.072029 C 51.958764 33.12075 52.444617 33.192477 52.926409 33.288565 C 53.408202 33.384653 53.884581 33.503748 54.354194 33.645849 C 54.823806 33.787951 55.286652 33.954413 55.740024 34.141176 C 56.19475 34.329291 56.637295 34.53906 57.070367 34.771837 C 57.504793 35.00326 57.925685 35.254983 58.333043 35.528359 C 58.741755 35.800383 59.13558 36.092706 59.515871 36.40533 C 59.896162 36.716601 60.25886 37.045465 60.606671 37.393276 C 60.954482 37.741087 61.283346 38.103785 61.594617 38.484076 C 61.907241 38.864367 62.199564 39.258192 62.471588 39.666904 C 62.744964 40.074262 62.996687 40.495154 63.229464 40.92958 C 63.460887 41.362652 63.670656 41.806551 63.858771 42.259923 C 64.045534 42.713295 64.211996 43.176141 64.354098 43.645753 C 64.496199 44.115366 64.615294 44.591745 64.711382 45.073538 C 64.80747 45.55533 64.879197 46.041183 64.927918 46.529742 C 64.975285 47.018302 64.999646 47.508215 64.999646 47.999481 Z M 64.999646 47.999481 " stroke="#10b981" stroke-width="2" stroke-opacity="0.3" stroke-miterlimit="4"/><g mask="url(#5dbcc75096)"><g transform="matrix(1, 0, 0, 1, 158, 151)"><g clip-path="url(#d3efbef310)"><path fill="#000000" d="M 3.632812 3.847656 L 32.496094 32.710938 " fill-opacity="1" fill-rule="nonzero"/><g clip-path="url(#a98041e53c)"><path stroke-linecap="round" transform="matrix(2.886356, 0, 0, 2.886356, -163.776166, -157.789678)" fill="none" stroke-linejoin="miter" d="M 58.000117 56.000487 L 68.000021 66.000391 " stroke="#10b981" stroke-width="2" stroke-opacity="1" stroke-miterlimit="4"/></g></g></g></g><g fill="#ffffff" fill-opacity="1"><g transform="translate(343.085742, 210.371255)"><g><path d="M 124.765625 39.078125 C 110.953125 39.078125 99.484375 35.75 90.359375 29.09375 C 81.234375 22.4375 75.09375 13.164062 71.9375 1.28125 C 59.988281 -0.425781 49.554688 -4.484375 40.640625 -10.890625 C 31.734375 -17.304688 24.789062 -26.164062 19.8125 -37.46875 C 14.832031 -48.78125 12.34375 -62.453125 12.34375 -78.484375 C 12.34375 -96.453125 15.457031 -111.46875 21.6875 -123.53125 C 27.914062 -135.59375 36.523438 -144.554688 47.515625 -150.421875 C 58.503906 -156.296875 71.191406 -159.234375 85.578125 -159.234375 C 99.960938 -159.234375 112.628906 -156.316406 123.578125 -150.484375 C 134.535156 -144.648438 143.109375 -135.679688 149.296875 -123.578125 C 155.492188 -111.484375 158.59375 -96.453125 158.59375 -78.484375 C 158.59375 -55.003906 153.5625 -36.984375 143.5 -24.421875 C 133.445312 -11.859375 119.328125 -4.039062 101.140625 -0.96875 L 100.609375 1.1875 C 102.828125 4.976562 106.132812 7.894531 110.53125 9.9375 C 114.9375 11.976562 120.078125 13 125.953125 13 C 130.671875 13 134.929688 12.390625 138.734375 11.171875 L 140.875 11.59375 L 145.28125 35.859375 C 142.988281 36.722656 139.910156 37.472656 136.046875 38.109375 C 132.179688 38.753906 128.421875 39.078125 124.765625 39.078125 Z M 85.578125 -24.703125 C 98.890625 -24.703125 109.050781 -28.976562 116.0625 -37.53125 C 123.082031 -46.082031 126.59375 -59.734375 126.59375 -78.484375 C 126.59375 -97.242188 123.082031 -110.914062 116.0625 -119.5 C 109.050781 -128.09375 98.890625 -132.390625 85.578125 -132.390625 C 72.191406 -132.390625 61.972656 -128.09375 54.921875 -119.5 C 47.867188 -110.914062 44.34375 -97.242188 44.34375 -78.484375 C 44.34375 -59.734375 47.867188 -46.082031 54.921875 -37.53125 C 61.972656 -28.976562 72.191406 -24.703125 85.578125 -24.703125 Z M 85.578125 -24.703125 "/></g></g></g><g fill="#ffffff" fill-opacity="1"><g transform="translate(513.70952, 210.371255)"><g><path d="M 74.953125 0 L 40.265625 0 L 4.296875 -156.984375 L 35.21875 -156.984375 L 58.953125 -46.59375 L 61.640625 -46.59375 L 89.765625 -156.984375 L 116.28125 -156.984375 L 144.953125 -46.59375 L 147.640625 -46.59375 L 171.484375 -156.984375 L 201.328125 -156.984375 L 165.46875 0 L 130.671875 0 L 103.1875 -101.25 L 100.9375 -101.25 Z M 74.953125 0 "/></g></g><g transform="translate(719.231177, 210.371255)"><g><path d="M 51.4375 -68.9375 L 51.4375 -25.984375 L 126.375 -25.984375 L 126.375 0 L 20.40625 0 L 20.40625 -156.984375 L 124.65625 -156.984375 L 124.65625 -131 L 51.4375 -131 L 51.4375 -94.28125 L 115.421875 -94.28125 L 115.421875 -68.9375 Z M 51.4375 -68.9375 "/></g></g><g transform="translate(854.205431, 210.371255)"><g><path d="M 76.875 -156.984375 C 102.363281 -156.984375 121.816406 -150.394531 135.234375 -137.21875 C 148.660156 -124.050781 155.375 -104.472656 155.375 -78.484375 C 155.375 -52.578125 148.660156 -33.019531 135.234375 -19.8125 C 121.816406 -6.601562 102.363281 0 76.875 0 L 20.40625 0 L 20.40625 -156.984375 Z M 75.0625 -26.09375 C 91.238281 -26.09375 103.332031 -30.222656 111.34375 -38.484375 C 119.363281 -46.753906 123.375 -60.085938 123.375 -78.484375 C 123.375 -96.890625 119.363281 -110.222656 111.34375 -118.484375 C 103.332031 -126.753906 91.238281 -130.890625 75.0625 -130.890625 L 51.4375 -130.890625 L 51.4375 -26.09375 Z M 75.0625 -26.09375 "/></g></g></g></svg>