<svg xmlns="http://www.w3.org/2000/svg" xmlns:xlink="http://www.w3.org/1999/xlink" width="1682" zoomAndPan="magnify" viewBox="0 0 1261.5 275.999989" height="368" preserveAspectRatio="xMidYMid meet" version="1.0"><defs><filter x="0%" y="0%" width="100%" height="100%" id="6b8991ff43"><feColorMatrix values="0 0 0 0 1 0 0 0 0 1 0 0 0 0 1 0 0 0 1 0" color-interpolation-filters="sRGB"/></filter><g/><clipPath id="71471fe80c"><path d="M 0 0.0546875 L 282.855469 0.0546875 L 282.855469 275.945312 L 0 275.945312 Z M 0 0.0546875 " clip-rule="nonzero"/></clipPath><mask id="26f352f5e6"><g filter="url(#6b8991ff43)"><rect x="-126.15" width="1513.8" fill="#000000" y="-27.599999" height="331.199987" fill-opacity="0.3"/></g></mask><clipPath id="1428e1ad36"><path d="M 0.578125 0.914062 L 35.601562 0.914062 L 35.601562 35.699219 L 0.578125 35.699219 Z M 0.578125 0.914062 " clip-rule="nonzero"/></clipPath><clipPath id="62c77e1b2d"><rect x="0" width="36" y="0" height="36"/></clipPath></defs><path fill="#10b981" d="M 138.542969 7.640625 L 253.996094 50.9375 L 253.996094 137.527344 C 253.996094 209.6875 138.542969 267.414062 138.542969 267.414062 C 138.542969 267.414062 23.085938 209.6875 23.085938 137.527344 L 23.085938 50.9375 Z M 138.542969 7.640625 " fill-opacity="0.2" fill-rule="nonzero"/><g clip-path="url(#71471fe80c)"><path stroke-linecap="butt" transform="matrix(2.886356, 0, 0, 2.886356, -5.776171, -6.789676)" fill="none" stroke-linejoin="miter" d="M 50.000466 4.999488 L 90.000082 20.00002 L 90.000082 49.999732 C 90.000082 75.000168 50.000466 94.999976 50.000466 94.999976 C 50.000466 94.999976 9.999497 75.000168 9.999497 49.999732 L 9.999497 20.00002 Z M 50.000466 4.999488 " stroke="#10b981" stroke-width="3" stroke-opacity="1" stroke-miterlimit="4"/></g><path stroke-linecap="round" transform="matrix(2.886356, 0, 0, 2.886356, -5.776171, -6.789676)" fill="none" stroke-linejoin="round" d="M 30.000659 49.999732 L 44.999838 65.000265 L 70.000274 35.000553 " stroke="#10b981" stroke-width="6" stroke-opacity="1" stroke-miterlimit="4"/><path stroke-linecap="butt" transform="matrix(2.886356, 0, 0, 2.886356, -5.776171, -6.789676)" fill="none" stroke-linejoin="miter" d="M 64.999646 47.999481 C 64.999646 48.490747 64.975285 48.982013 64.927918 49.470572 C 64.879197 49.959132 64.80747 50.444984 64.711382 50.926777 C 64.615294 51.40857 64.496199 51.883595 64.354098 52.354561 C 64.211996 52.824174 64.045534 53.287019 63.858771 53.740392 C 63.670656 54.193764 63.460887 54.637663 63.229464 55.070735 C 62.996687 55.503807 62.744964 55.924699 62.471588 56.333411 C 62.199564 56.742122 61.907241 57.135947 61.594617 57.516239 C 61.283346 57.895177 60.954482 58.259228 60.606671 58.607039 C 60.25886 58.953496 59.896162 59.283714 59.515871 59.594984 C 59.13558 59.906255 58.741755 60.198578 58.333043 60.471955 C 57.925685 60.745332 57.504793 60.997055 57.070367 61.228478 C 56.637295 61.459901 56.19475 61.66967 55.740024 61.857786 C 55.286652 62.045901 54.823806 62.21101 54.354194 62.354465 C 53.884581 62.496567 53.408202 62.615662 52.926409 62.71175 C 52.444617 62.807837 51.958764 62.879565 51.470205 62.928286 C 50.981645 62.975653 50.491733 63.000013 50.000466 63.000013 C 49.5092 63.000013 49.019288 62.975653 48.529375 62.928286 C 48.040815 62.879565 47.554963 62.807837 47.07317 62.71175 C 46.591378 62.615662 46.116352 62.496567 45.645386 62.354465 C 45.175773 62.21101 44.714281 62.045901 44.259555 61.857786 C 43.806183 61.66967 43.362284 61.459901 42.929212 61.228478 C 42.49614 60.997055 42.075248 60.745332 41.666537 60.471955 C 41.257825 60.198578 40.864 59.906255 40.483709 59.594984 C 40.10477 59.283714 39.740719 58.953496 39.392908 58.607039 C 39.046451 58.259228 38.716233 57.895177 38.404963 57.516239 C 38.093692 57.135947 37.801369 56.742122 37.527992 56.333411 C 37.254615 55.924699 37.002892 55.503807 36.771469 55.070735 C 36.540046 54.637663 36.330277 54.193764 36.142161 53.740392 C 35.954046 53.287019 35.788937 52.824174 35.645482 52.354561 C 35.50338 51.883595 35.384285 51.40857 35.288197 50.926777 C 35.19211 50.444984 35.120382 49.959132 35.071661 49.470572 C 35.024294 48.982013 34.999934 48.490747 34.999934 47.999481 C 34.999934 47.508215 35.024294 47.018302 35.071661 46.529742 C 35.120382 46.041183 35.19211 45.55533 35.288197 45.073538 C 35.384285 44.591745 35.50338 44.115366 35.645482 43.645753 C 35.788937 43.176141 35.954046 42.713295 36.142161 42.259923 C 36.330277 41.806551 36.540046 41.362652 36.771469 40.92958 C 37.002892 40.495154 37.254615 40.074262 37.527992 39.666904 C 37.801369 39.258192 38.093692 38.864367 38.404963 38.484076 C 38.716233 38.103785 39.046451 37.741087 39.392908 37.393276 C 39.740719 37.045465 40.10477 36.716601 40.483709 36.40533 C 40.864 36.092706 41.257825 35.800383 41.666537 35.528359 C 42.075248 35.254983 42.49614 35.00326 42.929212 34.771837 C 43.362284 34.53906 43.806183 34.329291 44.259555 34.141176 C 44.714281 33.954413 45.175773 33.787951 45.645386 33.645849 C 46.116352 33.503748 46.591378 33.384653 47.07317 33.288565 C 47.554963 33.192477 48.040815 33.12075 48.529375 33.072029 C 49.019288 33.024662 49.5092 33.000301 50.000466 33.000301 C 50.491733 33.000301 50.981645 33.024662 51.470205 33.072029 C 51.958764 33.12075 52.444617 33.192477 52.926409 33.288565 C 53.408202 33.384653 53.884581 33.503748 54.354194 33.645849 C 54.823806 33.787951 55.286652 33.954413 55.740024 34.141176 C 56.19475 34.329291 56.637295 34.53906 57.070367 34.771837 C 57.504793 35.00326 57.925685 35.254983 58.333043 35.528359 C 58.741755 35.800383 59.13558 36.092706 59.515871 36.40533 C 59.896162 36.716601 60.25886 37.045465 60.606671 37.393276 C 60.954482 37.741087 61.283346 38.103785 61.594617 38.484076 C 61.907241 38.864367 62.199564 39.258192 62.471588 39.666904 C 62.744964 40.074262 62.996687 40.495154 63.229464 40.92958 C 63.460887 41.362652 63.670656 41.806551 63.858771 42.259923 C 64.045534 42.713295 64.211996 43.176141 64.354098 43.645753 C 64.496199 44.115366 64.615294 44.591745 64.711382 45.073538 C 64.80747 45.55533 64.879197 46.041183 64.927918 46.529742 C 64.975285 47.018302 64.999646 47.508215 64.999646 47.999481 Z M 64.999646 47.999481 " stroke="#10b981" stroke-width="2" stroke-opacity="0.3" stroke-miterlimit="4"/><g mask="url(#26f352f5e6)"><g transform="matrix(1, 0, 0, 1, 158, 151)"><g clip-path="url(#62c77e1b2d)"><path fill="#000000" d="M 3.632812 3.847656 L 32.496094 32.710938 " fill-opacity="1" fill-rule="nonzero"/><g clip-path="url(#1428e1ad36)"><path stroke-linecap="round" transform="matrix(2.886356, 0, 0, 2.886356, -163.776166, -157.789678)" fill="none" stroke-linejoin="miter" d="M 58.000117 56.000487 L 68.000021 66.000391 " stroke="#10b981" stroke-width="2" stroke-opacity="1" stroke-miterlimit="4"/></g></g></g></g><g fill="#ffffff" fill-opacity="1"><g transform="translate(358.514887, 199.375587)"><g><path d="M 119.109375 37.3125 C 105.921875 37.3125 94.96875 34.132812 86.25 27.78125 C 77.539062 21.425781 71.679688 12.578125 68.671875 1.234375 C 57.265625 -0.410156 47.304688 -4.289062 38.796875 -10.40625 C 30.285156 -16.519531 23.65625 -24.972656 18.90625 -35.765625 C 14.15625 -46.566406 11.78125 -59.617188 11.78125 -74.921875 C 11.78125 -92.078125 14.753906 -106.410156 20.703125 -117.921875 C 26.648438 -129.441406 34.867188 -138.003906 45.359375 -143.609375 C 55.847656 -149.210938 67.957031 -152.015625 81.6875 -152.015625 C 95.425781 -152.015625 107.519531 -149.226562 117.96875 -143.65625 C 128.425781 -138.082031 136.609375 -129.519531 142.515625 -117.96875 C 148.429688 -106.425781 151.390625 -92.078125 151.390625 -74.921875 C 151.390625 -52.515625 146.585938 -35.3125 136.984375 -23.3125 C 127.390625 -11.320312 113.914062 -3.859375 96.5625 -0.921875 L 96.046875 1.125 C 98.160156 4.75 101.316406 7.535156 105.515625 9.484375 C 109.722656 11.429688 114.628906 12.40625 120.234375 12.40625 C 124.742188 12.40625 128.8125 11.820312 132.4375 10.65625 L 134.484375 11.0625 L 138.6875 34.234375 C 136.5 35.054688 133.554688 35.773438 129.859375 36.390625 C 126.171875 37.003906 122.585938 37.3125 119.109375 37.3125 Z M 81.6875 -23.578125 C 94.40625 -23.578125 104.109375 -27.660156 110.796875 -35.828125 C 117.492188 -43.992188 120.84375 -57.023438 120.84375 -74.921875 C 120.84375 -92.828125 117.492188 -105.878906 110.796875 -114.078125 C 104.109375 -122.285156 94.40625 -126.390625 81.6875 -126.390625 C 68.914062 -126.390625 59.160156 -122.285156 52.421875 -114.078125 C 45.691406 -105.878906 42.328125 -92.828125 42.328125 -74.921875 C 42.328125 -57.023438 45.691406 -43.992188 52.421875 -35.828125 C 59.160156 -27.660156 68.914062 -23.578125 81.6875 -23.578125 Z M 81.6875 -23.578125 "/></g></g></g><g fill="#ffffff" fill-opacity="1"><g transform="translate(521.384894, 199.375587)"><g><path d="M 71.546875 0 L 38.4375 0 L 4.09375 -149.859375 L 33.625 -149.859375 L 56.265625 -44.484375 L 58.828125 -44.484375 L 85.6875 -149.859375 L 111.015625 -149.859375 L 138.375 -44.484375 L 140.9375 -44.484375 L 163.6875 -149.859375 L 192.1875 -149.859375 L 157.953125 0 L 124.75 0 L 98.5 -96.65625 L 96.34375 -96.65625 Z M 71.546875 0 "/></g></g><g transform="translate(717.566893, 199.375587)"><g><path d="M 49.09375 -65.8125 L 49.09375 -24.8125 L 120.640625 -24.8125 L 120.640625 0 L 19.46875 0 L 19.46875 -149.859375 L 119 -149.859375 L 119 -125.046875 L 49.09375 -125.046875 L 49.09375 -90 L 110.1875 -90 L 110.1875 -65.8125 Z M 49.09375 -65.8125 "/></g></g><g transform="translate(846.407423, 199.375587)"><g><path d="M 73.390625 -149.859375 C 97.710938 -149.859375 116.28125 -143.570312 129.09375 -131 C 141.90625 -118.425781 148.3125 -99.734375 148.3125 -74.921875 C 148.3125 -50.191406 141.90625 -31.519531 129.09375 -18.90625 C 116.28125 -6.300781 97.710938 0 73.390625 0 L 19.46875 0 L 19.46875 -149.859375 Z M 71.640625 -24.90625 C 87.085938 -24.90625 98.640625 -28.847656 106.296875 -36.734375 C 113.953125 -44.628906 117.78125 -57.359375 117.78125 -74.921875 C 117.78125 -92.484375 113.953125 -105.210938 106.296875 -113.109375 C 98.640625 -121.003906 87.085938 -124.953125 71.640625 -124.953125 L 49.09375 -124.953125 L 49.09375 -24.90625 Z M 71.640625 -24.90625 "/></g></g></g></svg>