<svg xmlns="http://www.w3.org/2000/svg" xmlns:xlink="http://www.w3.org/1999/xlink" width="1682" zoomAndPan="magnify" viewBox="0 0 1261.5 275.999989" height="368" preserveAspectRatio="xMidYMid meet" version="1.0"><defs><filter x="0%" y="0%" width="100%" height="100%" id="8ec038c171"><feColorMatrix values="0 0 0 0 1 0 0 0 0 1 0 0 0 0 1 0 0 0 1 0" color-interpolation-filters="sRGB"/></filter><g/><clipPath id="868fd9feb5"><path d="M 0 0.0546875 L 284.566406 0.0546875 L 284.566406 275.945312 L 0 275.945312 Z M 0 0.0546875 " clip-rule="nonzero"/></clipPath><mask id="363b352516"><g filter="url(#8ec038c171)"><rect x="-126.15" width="1513.8" fill="#000000" y="-27.599999" height="331.199987" fill-opacity="0.3"/></g></mask><clipPath id="1810436d1e"><path d="M 0.0585938 0.433594 L 35.324219 0.433594 L 35.324219 35.460938 L 0.0585938 35.460938 Z M 0.0585938 0.433594 " clip-rule="nonzero"/></clipPath><clipPath id="d9ac6ba44d"><rect x="0" width="36" y="0" height="36"/></clipPath></defs><path fill="#10b981" d="M 138.746094 5.640625 L 255.402344 49.382812 L 255.402344 136.875 C 255.402344 209.78125 138.746094 268.109375 138.746094 268.109375 C 138.746094 268.109375 22.09375 209.78125 22.09375 136.875 L 22.09375 49.382812 Z M 138.746094 5.640625 " fill-opacity="0.2" fill-rule="nonzero"/><g clip-path="url(#868fd9feb5)"><path stroke-linecap="butt" transform="matrix(2.916344, 0, 0, 2.916344, -7.069673, -8.942742)" fill="none" stroke-linejoin="miter" d="M 49.999513 5.000565 L 90.000371 19.999546 L 90.000371 50.000186 C 90.000371 74.999381 49.999513 94.999808 49.999513 94.999808 C 49.999513 94.999808 9.999995 74.999381 9.999995 50.000186 L 9.999995 19.999546 Z M 49.999513 5.000565 " stroke="#10b981" stroke-width="3" stroke-opacity="1" stroke-miterlimit="4"/></g><path stroke-linecap="round" transform="matrix(2.916344, 0, 0, 2.916344, -7.069673, -8.942742)" fill="none" stroke-linejoin="round" d="M 30.000424 50.000186 L 44.999406 65.000506 L 69.999942 34.999866 " stroke="#10b981" stroke-width="6" stroke-opacity="1" stroke-miterlimit="4"/><path stroke-linecap="butt" transform="matrix(2.916344, 0, 0, 2.916344, -7.069673, -8.942742)" fill="none" stroke-linejoin="miter" d="M 64.999835 48.000411 C 64.999835 48.490644 64.975725 48.980877 64.927505 49.46977 C 64.879286 49.958664 64.806956 50.444878 64.711856 50.925735 C 64.615417 51.407931 64.496208 51.88477 64.354228 52.354911 C 64.210908 52.825052 64.046158 53.285818 63.858637 53.739886 C 63.669777 54.193954 63.460825 54.637306 63.229103 55.071283 C 62.997381 55.50392 62.745567 55.924502 62.472323 56.33303 C 62.199078 56.741557 61.907082 57.13669 61.594993 57.51575 C 61.282905 57.896149 60.953405 58.259136 60.606491 58.606049 C 60.259578 58.954302 59.895252 59.283803 59.516192 59.594551 C 59.135793 59.906639 58.741999 60.198636 58.333472 60.47188 C 57.924944 60.745125 57.504362 60.996939 57.070385 61.228661 C 56.637748 61.460383 56.194396 61.670674 55.740327 61.858195 C 55.286259 62.045715 54.824155 62.211805 54.354013 62.353785 C 53.883872 62.497104 53.408373 62.616314 52.926177 62.711414 C 52.44398 62.807853 51.959105 62.880183 51.470212 62.928402 C 50.981318 62.975282 50.491085 62.999392 49.999513 62.999392 C 49.50928 62.999392 49.019048 62.975282 48.530154 62.928402 C 48.041261 62.880183 47.555046 62.807853 47.074189 62.711414 C 46.591993 62.616314 46.116494 62.497104 45.646353 62.353785 C 45.176211 62.211805 44.714107 62.045715 44.260038 61.858195 C 43.80597 61.670674 43.362618 61.460383 42.928641 61.228661 C 42.496004 60.996939 42.075422 60.745125 41.666894 60.47188 C 41.258367 60.198636 40.863234 59.906639 40.484174 59.594551 C 40.103775 59.283803 39.740788 58.954302 39.393875 58.606049 C 39.045622 58.259136 38.716121 57.896149 38.405372 57.51575 C 38.093284 57.13669 37.801288 56.741557 37.528043 56.33303 C 37.254799 55.924502 37.002985 55.50392 36.771263 55.071283 C 36.539541 54.637306 36.32925 54.193954 36.141729 53.739886 C 35.954208 53.285818 35.788118 52.825052 35.646138 52.354911 C 35.502819 51.88477 35.383609 51.407931 35.288509 50.925735 C 35.19207 50.444878 35.119741 49.958664 35.072861 49.46977 C 35.024641 48.980877 35.000531 48.490644 35.000531 48.000411 C 35.000531 47.508839 35.024641 47.018606 35.072861 46.529713 C 35.119741 46.04082 35.19207 45.555944 35.288509 45.073748 C 35.383609 44.591552 35.502819 44.116053 35.646138 43.645912 C 35.788118 43.17577 35.954208 42.713666 36.141729 42.259598 C 36.32925 41.80553 36.539541 41.362177 36.771263 40.92954 C 37.002985 40.495563 37.254799 40.074981 37.528043 39.666454 C 37.801288 39.257926 38.093284 38.864133 38.405372 38.483733 C 38.716121 38.104674 39.045622 37.740348 39.393875 37.393434 C 39.740788 37.046521 40.103775 36.71702 40.484174 36.404932 C 40.863234 36.092844 41.258367 35.800847 41.666894 35.527603 C 42.075422 35.254358 42.496004 35.002545 42.928641 34.770823 C 43.362618 34.539101 43.80597 34.330149 44.260038 34.141289 C 44.714107 33.953768 45.176211 33.789018 45.646353 33.645698 C 46.116494 33.503718 46.591993 33.384509 47.074189 33.288069 C 47.555046 33.192969 48.041261 33.12064 48.530154 33.07242 C 49.019048 33.024201 49.50928 33.000091 49.999513 33.000091 C 50.491085 33.000091 50.981318 33.024201 51.470212 33.07242 C 51.959105 33.12064 52.44398 33.192969 52.926177 33.288069 C 53.408373 33.384509 53.883872 33.503718 54.354013 33.645698 C 54.824155 33.789018 55.286259 33.953768 55.740327 34.141289 C 56.194396 34.330149 56.637748 34.539101 57.070385 34.770823 C 57.504362 35.002545 57.924944 35.254358 58.333472 35.527603 C 58.741999 35.800847 59.135793 36.092844 59.516192 36.404932 C 59.895252 36.71702 60.259578 37.046521 60.606491 37.393434 C 60.953405 37.740348 61.282905 38.104674 61.594993 38.483733 C 61.907082 38.864133 62.199078 39.257926 62.472323 39.666454 C 62.745567 40.074981 62.997381 40.495563 63.229103 40.92954 C 63.460825 41.362177 63.669777 41.80553 63.858637 42.259598 C 64.046158 42.713666 64.210908 43.17577 64.354228 43.645912 C 64.496208 44.116053 64.615417 44.591552 64.711856 45.073748 C 64.806956 45.555944 64.879286 46.04082 64.927505 46.529713 C 64.975725 47.018606 64.999835 47.508839 64.999835 48.000411 Z M 64.999835 48.000411 " stroke="#10b981" stroke-width="2" stroke-opacity="0.3" stroke-miterlimit="4"/><g mask="url(#363b352516)"><g transform="matrix(1, 0, 0, 1, 159, 151)"><g clip-path="url(#d9ac6ba44d)"><path fill="#000000" d="M 3.078125 3.371094 L 32.242188 32.535156 " fill-opacity="1" fill-rule="nonzero"/><g clip-path="url(#1810436d1e)"><path stroke-linecap="round" transform="matrix(2.916344, 0, 0, 2.916344, -166.069669, -159.942745)" fill="none" stroke-linejoin="miter" d="M 57.999951 55.999512 L 68.000165 65.999725 " stroke="#10b981" stroke-width="2" stroke-opacity="1" stroke-miterlimit="4"/></g></g></g></g><g fill="#000000" fill-opacity="1"><g transform="translate(337.050574, 207.480111)"><g><path d="M 124.765625 39.078125 C 110.953125 39.078125 99.484375 35.75 90.359375 29.09375 C 81.234375 22.4375 75.09375 13.164062 71.9375 1.28125 C 59.988281 -0.425781 49.554688 -4.484375 40.640625 -10.890625 C 31.734375 -17.304688 24.789062 -26.164062 19.8125 -37.46875 C 14.832031 -48.78125 12.34375 -62.453125 12.34375 -78.484375 C 12.34375 -96.453125 15.457031 -111.46875 21.6875 -123.53125 C 27.914062 -135.59375 36.523438 -144.554688 47.515625 -150.421875 C 58.503906 -156.296875 71.191406 -159.234375 85.578125 -159.234375 C 99.960938 -159.234375 112.628906 -156.316406 123.578125 -150.484375 C 134.535156 -144.648438 143.109375 -135.679688 149.296875 -123.578125 C 155.492188 -111.484375 158.59375 -96.453125 158.59375 -78.484375 C 158.59375 -55.003906 153.5625 -36.984375 143.5 -24.421875 C 133.445312 -11.859375 119.328125 -4.039062 101.140625 -0.96875 L 100.609375 1.1875 C 102.828125 4.976562 106.132812 7.894531 110.53125 9.9375 C 114.9375 11.976562 120.078125 13 125.953125 13 C 130.671875 13 134.929688 12.390625 138.734375 11.171875 L 140.875 11.59375 L 145.28125 35.859375 C 142.988281 36.722656 139.910156 37.472656 136.046875 38.109375 C 132.179688 38.753906 128.421875 39.078125 124.765625 39.078125 Z M 85.578125 -24.703125 C 98.890625 -24.703125 109.050781 -28.976562 116.0625 -37.53125 C 123.082031 -46.082031 126.59375 -59.734375 126.59375 -78.484375 C 126.59375 -97.242188 123.082031 -110.914062 116.0625 -119.5 C 109.050781 -128.09375 98.890625 -132.390625 85.578125 -132.390625 C 72.191406 -132.390625 61.972656 -128.09375 54.921875 -119.5 C 47.867188 -110.914062 44.34375 -97.242188 44.34375 -78.484375 C 44.34375 -59.734375 47.867188 -46.082031 54.921875 -37.53125 C 61.972656 -28.976562 72.191406 -24.703125 85.578125 -24.703125 Z M 85.578125 -24.703125 "/></g></g></g><g fill="#000000" fill-opacity="1"><g transform="translate(507.674352, 207.480111)"><g><path d="M 74.953125 0 L 40.265625 0 L 4.296875 -156.984375 L 35.21875 -156.984375 L 58.953125 -46.59375 L 61.640625 -46.59375 L 89.765625 -156.984375 L 116.28125 -156.984375 L 144.953125 -46.59375 L 147.640625 -46.59375 L 171.484375 -156.984375 L 201.328125 -156.984375 L 165.46875 0 L 130.671875 0 L 103.1875 -101.25 L 100.9375 -101.25 Z M 74.953125 0 "/></g></g><g transform="translate(713.196009, 207.480111)"><g><path d="M 51.4375 -68.9375 L 51.4375 -25.984375 L 126.375 -25.984375 L 126.375 0 L 20.40625 0 L 20.40625 -156.984375 L 124.65625 -156.984375 L 124.65625 -131 L 51.4375 -131 L 51.4375 -94.28125 L 115.421875 -94.28125 L 115.421875 -68.9375 Z M 51.4375 -68.9375 "/></g></g><g transform="translate(848.170263, 207.480111)"><g><path d="M 76.875 -156.984375 C 102.363281 -156.984375 121.816406 -150.394531 135.234375 -137.21875 C 148.660156 -124.050781 155.375 -104.472656 155.375 -78.484375 C 155.375 -52.578125 148.660156 -33.019531 135.234375 -19.8125 C 121.816406 -6.601562 102.363281 0 76.875 0 L 20.40625 0 L 20.40625 -156.984375 Z M 75.0625 -26.09375 C 91.238281 -26.09375 103.332031 -30.222656 111.34375 -38.484375 C 119.363281 -46.753906 123.375 -60.085938 123.375 -78.484375 C 123.375 -96.890625 119.363281 -110.222656 111.34375 -118.484375 C 103.332031 -126.753906 91.238281 -130.890625 75.0625 -130.890625 L 51.4375 -130.890625 L 51.4375 -26.09375 Z M 75.0625 -26.09375 "/></g></g></g></svg>