<svg xmlns="http://www.w3.org/2000/svg" xmlns:xlink="http://www.w3.org/1999/xlink" width="1682" zoomAndPan="magnify" viewBox="0 0 1261.5 275.999989" height="368" preserveAspectRatio="xMidYMid meet" version="1.0"><defs><filter x="0%" y="0%" width="100%" height="100%" id="531f6ccd33"><feColorMatrix values="0 0 0 0 1 0 0 0 0 1 0 0 0 0 1 0 0 0 1 0" color-interpolation-filters="sRGB"/></filter><g/><clipPath id="6139163a8b"><path d="M 0 0.0546875 L 284.566406 0.0546875 L 284.566406 275.945312 L 0 275.945312 Z M 0 0.0546875 " clip-rule="nonzero"/></clipPath><mask id="9bcf7287ee"><g filter="url(#531f6ccd33)"><rect x="-126.15" width="1513.8" fill="#000000" y="-27.599999" height="331.199987" fill-opacity="0.3"/></g></mask><clipPath id="e5ffccec0f"><path d="M 0.0585938 0.433594 L 35.324219 0.433594 L 35.324219 35.460938 L 0.0585938 35.460938 Z M 0.0585938 0.433594 " clip-rule="nonzero"/></clipPath><clipPath id="56966a6319"><rect x="0" width="36" y="0" height="36"/></clipPath></defs><path fill="#10b981" d="M 138.746094 5.640625 L 255.402344 49.382812 L 255.402344 136.875 C 255.402344 209.78125 138.746094 268.109375 138.746094 268.109375 C 138.746094 268.109375 22.09375 209.78125 22.09375 136.875 L 22.09375 49.382812 Z M 138.746094 5.640625 " fill-opacity="0.2" fill-rule="nonzero"/><g clip-path="url(#6139163a8b)"><path stroke-linecap="butt" transform="matrix(2.916344, 0, 0, 2.916344, -7.069673, -8.942742)" fill="none" stroke-linejoin="miter" d="M 49.999513 5.000565 L 90.000371 19.999546 L 90.000371 50.000186 C 90.000371 74.999381 49.999513 94.999808 49.999513 94.999808 C 49.999513 94.999808 9.999995 74.999381 9.999995 50.000186 L 9.999995 19.999546 Z M 49.999513 5.000565 " stroke="#10b981" stroke-width="3" stroke-opacity="1" stroke-miterlimit="4"/></g><path stroke-linecap="round" transform="matrix(2.916344, 0, 0, 2.916344, -7.069673, -8.942742)" fill="none" stroke-linejoin="round" d="M 30.000424 50.000186 L 44.999406 65.000506 L 69.999942 34.999866 " stroke="#10b981" stroke-width="6" stroke-opacity="1" stroke-miterlimit="4"/><path stroke-linecap="butt" transform="matrix(2.916344, 0, 0, 2.916344, -7.069673, -8.942742)" fill="none" stroke-linejoin="miter" d="M 64.999835 48.000411 C 64.999835 48.490644 64.975725 48.980877 64.927505 49.46977 C 64.879286 49.958664 64.806956 50.444878 64.711856 50.925735 C 64.615417 51.407931 64.496208 51.88477 64.354228 52.354911 C 64.210908 52.825052 64.046158 53.285818 63.858637 53.739886 C 63.669777 54.193954 63.460825 54.637306 63.229103 55.071283 C 62.997381 55.50392 62.745567 55.924502 62.472323 56.33303 C 62.199078 56.741557 61.907082 57.13669 61.594993 57.51575 C 61.282905 57.896149 60.953405 58.259136 60.606491 58.606049 C 60.259578 58.954302 59.895252 59.283803 59.516192 59.594551 C 59.135793 59.906639 58.741999 60.198636 58.333472 60.47188 C 57.924944 60.745125 57.504362 60.996939 57.070385 61.228661 C 56.637748 61.460383 56.194396 61.670674 55.740327 61.858195 C 55.286259 62.045715 54.824155 62.211805 54.354013 62.353785 C 53.883872 62.497104 53.408373 62.616314 52.926177 62.711414 C 52.44398 62.807853 51.959105 62.880183 51.470212 62.928402 C 50.981318 62.975282 50.491085 62.999392 49.999513 62.999392 C 49.50928 62.999392 49.019048 62.975282 48.530154 62.928402 C 48.041261 62.880183 47.555046 62.807853 47.074189 62.711414 C 46.591993 62.616314 46.116494 62.497104 45.646353 62.353785 C 45.176211 62.211805 44.714107 62.045715 44.260038 61.858195 C 43.80597 61.670674 43.362618 61.460383 42.928641 61.228661 C 42.496004 60.996939 42.075422 60.745125 41.666894 60.47188 C 41.258367 60.198636 40.863234 59.906639 40.484174 59.594551 C 40.103775 59.283803 39.740788 58.954302 39.393875 58.606049 C 39.045622 58.259136 38.716121 57.896149 38.405372 57.51575 C 38.093284 57.13669 37.801288 56.741557 37.528043 56.33303 C 37.254799 55.924502 37.002985 55.50392 36.771263 55.071283 C 36.539541 54.637306 36.32925 54.193954 36.141729 53.739886 C 35.954208 53.285818 35.788118 52.825052 35.646138 52.354911 C 35.502819 51.88477 35.383609 51.407931 35.288509 50.925735 C 35.19207 50.444878 35.119741 49.958664 35.072861 49.46977 C 35.024641 48.980877 35.000531 48.490644 35.000531 48.000411 C 35.000531 47.508839 35.024641 47.018606 35.072861 46.529713 C 35.119741 46.04082 35.19207 45.555944 35.288509 45.073748 C 35.383609 44.591552 35.502819 44.116053 35.646138 43.645912 C 35.788118 43.17577 35.954208 42.713666 36.141729 42.259598 C 36.32925 41.80553 36.539541 41.362177 36.771263 40.92954 C 37.002985 40.495563 37.254799 40.074981 37.528043 39.666454 C 37.801288 39.257926 38.093284 38.864133 38.405372 38.483733 C 38.716121 38.104674 39.045622 37.740348 39.393875 37.393434 C 39.740788 37.046521 40.103775 36.71702 40.484174 36.404932 C 40.863234 36.092844 41.258367 35.800847 41.666894 35.527603 C 42.075422 35.254358 42.496004 35.002545 42.928641 34.770823 C 43.362618 34.539101 43.80597 34.330149 44.260038 34.141289 C 44.714107 33.953768 45.176211 33.789018 45.646353 33.645698 C 46.116494 33.503718 46.591993 33.384509 47.074189 33.288069 C 47.555046 33.192969 48.041261 33.12064 48.530154 33.07242 C 49.019048 33.024201 49.50928 33.000091 49.999513 33.000091 C 50.491085 33.000091 50.981318 33.024201 51.470212 33.07242 C 51.959105 33.12064 52.44398 33.192969 52.926177 33.288069 C 53.408373 33.384509 53.883872 33.503718 54.354013 33.645698 C 54.824155 33.789018 55.286259 33.953768 55.740327 34.141289 C 56.194396 34.330149 56.637748 34.539101 57.070385 34.770823 C 57.504362 35.002545 57.924944 35.254358 58.333472 35.527603 C 58.741999 35.800847 59.135793 36.092844 59.516192 36.404932 C 59.895252 36.71702 60.259578 37.046521 60.606491 37.393434 C 60.953405 37.740348 61.282905 38.104674 61.594993 38.483733 C 61.907082 38.864133 62.199078 39.257926 62.472323 39.666454 C 62.745567 40.074981 62.997381 40.495563 63.229103 40.92954 C 63.460825 41.362177 63.669777 41.80553 63.858637 42.259598 C 64.046158 42.713666 64.210908 43.17577 64.354228 43.645912 C 64.496208 44.116053 64.615417 44.591552 64.711856 45.073748 C 64.806956 45.555944 64.879286 46.04082 64.927505 46.529713 C 64.975725 47.018606 64.999835 47.508839 64.999835 48.000411 Z M 64.999835 48.000411 " stroke="#10b981" stroke-width="2" stroke-opacity="0.3" stroke-miterlimit="4"/><g mask="url(#9bcf7287ee)"><g transform="matrix(1, 0, 0, 1, 159, 151)"><g clip-path="url(#56966a6319)"><path fill="#000000" d="M 3.078125 3.371094 L 32.242188 32.535156 " fill-opacity="1" fill-rule="nonzero"/><g clip-path="url(#e5ffccec0f)"><path stroke-linecap="round" transform="matrix(2.916344, 0, 0, 2.916344, -166.069669, -159.942745)" fill="none" stroke-linejoin="miter" d="M 57.999951 55.999512 L 68.000165 65.999725 " stroke="#10b981" stroke-width="2" stroke-opacity="1" stroke-miterlimit="4"/></g></g></g></g><g fill="#000000" fill-opacity="1"><g transform="translate(352.479722, 196.484445)"><g><path d="M 119.109375 37.3125 C 105.921875 37.3125 94.96875 34.132812 86.25 27.78125 C 77.539062 21.425781 71.679688 12.578125 68.671875 1.234375 C 57.265625 -0.410156 47.304688 -4.289062 38.796875 -10.40625 C 30.285156 -16.519531 23.65625 -24.972656 18.90625 -35.765625 C 14.15625 -46.566406 11.78125 -59.617188 11.78125 -74.921875 C 11.78125 -92.078125 14.753906 -106.410156 20.703125 -117.921875 C 26.648438 -129.441406 34.867188 -138.003906 45.359375 -143.609375 C 55.847656 -149.210938 67.957031 -152.015625 81.6875 -152.015625 C 95.425781 -152.015625 107.519531 -149.226562 117.96875 -143.65625 C 128.425781 -138.082031 136.609375 -129.519531 142.515625 -117.96875 C 148.429688 -106.425781 151.390625 -92.078125 151.390625 -74.921875 C 151.390625 -52.515625 146.585938 -35.3125 136.984375 -23.3125 C 127.390625 -11.320312 113.914062 -3.859375 96.5625 -0.921875 L 96.046875 1.125 C 98.160156 4.75 101.316406 7.535156 105.515625 9.484375 C 109.722656 11.429688 114.628906 12.40625 120.234375 12.40625 C 124.742188 12.40625 128.8125 11.820312 132.4375 10.65625 L 134.484375 11.0625 L 138.6875 34.234375 C 136.5 35.054688 133.554688 35.773438 129.859375 36.390625 C 126.171875 37.003906 122.585938 37.3125 119.109375 37.3125 Z M 81.6875 -23.578125 C 94.40625 -23.578125 104.109375 -27.660156 110.796875 -35.828125 C 117.492188 -43.992188 120.84375 -57.023438 120.84375 -74.921875 C 120.84375 -92.828125 117.492188 -105.878906 110.796875 -114.078125 C 104.109375 -122.285156 94.40625 -126.390625 81.6875 -126.390625 C 68.914062 -126.390625 59.160156 -122.285156 52.421875 -114.078125 C 45.691406 -105.878906 42.328125 -92.828125 42.328125 -74.921875 C 42.328125 -57.023438 45.691406 -43.992188 52.421875 -35.828125 C 59.160156 -27.660156 68.914062 -23.578125 81.6875 -23.578125 Z M 81.6875 -23.578125 "/></g></g></g><g fill="#000000" fill-opacity="1"><g transform="translate(515.349729, 196.484445)"><g><path d="M 71.546875 0 L 38.4375 0 L 4.09375 -149.859375 L 33.625 -149.859375 L 56.265625 -44.484375 L 58.828125 -44.484375 L 85.6875 -149.859375 L 111.015625 -149.859375 L 138.375 -44.484375 L 140.9375 -44.484375 L 163.6875 -149.859375 L 192.1875 -149.859375 L 157.953125 0 L 124.75 0 L 98.5 -96.65625 L 96.34375 -96.65625 Z M 71.546875 0 "/></g></g><g transform="translate(711.531728, 196.484445)"><g><path d="M 49.09375 -65.8125 L 49.09375 -24.8125 L 120.640625 -24.8125 L 120.640625 0 L 19.46875 0 L 19.46875 -149.859375 L 119 -149.859375 L 119 -125.046875 L 49.09375 -125.046875 L 49.09375 -90 L 110.1875 -90 L 110.1875 -65.8125 Z M 49.09375 -65.8125 "/></g></g><g transform="translate(840.372258, 196.484445)"><g><path d="M 73.390625 -149.859375 C 97.710938 -149.859375 116.28125 -143.570312 129.09375 -131 C 141.90625 -118.425781 148.3125 -99.734375 148.3125 -74.921875 C 148.3125 -50.191406 141.90625 -31.519531 129.09375 -18.90625 C 116.28125 -6.300781 97.710938 0 73.390625 0 L 19.46875 0 L 19.46875 -149.859375 Z M 71.640625 -24.90625 C 87.085938 -24.90625 98.640625 -28.847656 106.296875 -36.734375 C 113.953125 -44.628906 117.78125 -57.359375 117.78125 -74.921875 C 117.78125 -92.484375 113.953125 -105.210938 106.296875 -113.109375 C 98.640625 -121.003906 87.085938 -124.953125 71.640625 -124.953125 L 49.09375 -124.953125 L 49.09375 -24.90625 Z M 71.640625 -24.90625 "/></g></g></g></svg>