<svg xmlns="http://www.w3.org/2000/svg" xmlns:xlink="http://www.w3.org/1999/xlink" width="1682" zoomAndPan="magnify" viewBox="0 0 1261.5 275.999989" height="368" preserveAspectRatio="xMidYMid meet" version="1.0"><defs><filter x="0%" y="0%" width="100%" height="100%" id="23c595c51f"><feColorMatrix values="0 0 0 0 1 0 0 0 0 1 0 0 0 0 1 0 0 0 1 0" color-interpolation-filters="sRGB"/></filter><g/><clipPath id="0d92f19af1"><path d="M 0 0.0546875 L 284.566406 0.0546875 L 284.566406 275.945312 L 0 275.945312 Z M 0 0.0546875 " clip-rule="nonzero"/></clipPath><mask id="06191a6c23"><g filter="url(#23c595c51f)"><rect x="-126.15" width="1513.8" fill="#000000" y="-27.599999" height="331.199987" fill-opacity="0.3"/></g></mask><clipPath id="015e5ff65e"><path d="M 0.0585938 0.433594 L 35.324219 0.433594 L 35.324219 35.460938 L 0.0585938 35.460938 Z M 0.0585938 0.433594 " clip-rule="nonzero"/></clipPath><clipPath id="829b3f7e74"><rect x="0" width="36" y="0" height="36"/></clipPath></defs><path fill="#10b981" d="M 138.746094 5.640625 L 255.402344 49.382812 L 255.402344 136.875 C 255.402344 209.78125 138.746094 268.109375 138.746094 268.109375 C 138.746094 268.109375 22.09375 209.78125 22.09375 136.875 L 22.09375 49.382812 Z M 138.746094 5.640625 " fill-opacity="0.2" fill-rule="nonzero"/><g clip-path="url(#0d92f19af1)"><path stroke-linecap="butt" transform="matrix(2.916344, 0, 0, 2.916344, -7.069673, -8.942742)" fill="none" stroke-linejoin="miter" d="M 49.999513 5.000565 L 90.000371 19.999546 L 90.000371 50.000186 C 90.000371 74.999381 49.999513 94.999808 49.999513 94.999808 C 49.999513 94.999808 9.999995 74.999381 9.999995 50.000186 L 9.999995 19.999546 Z M 49.999513 5.000565 " stroke="#10b981" stroke-width="3" stroke-opacity="1" stroke-miterlimit="4"/></g><path stroke-linecap="round" transform="matrix(2.916344, 0, 0, 2.916344, -7.069673, -8.942742)" fill="none" stroke-linejoin="round" d="M 30.000424 50.000186 L 44.999406 65.000506 L 69.999942 34.999866 " stroke="#10b981" stroke-width="6" stroke-opacity="1" stroke-miterlimit="4"/><path stroke-linecap="butt" transform="matrix(2.916344, 0, 0, 2.916344, -7.069673, -8.942742)" fill="none" stroke-linejoin="miter" d="M 64.999835 48.000411 C 64.999835 48.490644 64.975725 48.980877 64.927505 49.46977 C 64.879286 49.958664 64.806956 50.444878 64.711856 50.925735 C 64.615417 51.407931 64.496208 51.88477 64.354228 52.354911 C 64.210908 52.825052 64.046158 53.285818 63.858637 53.739886 C 63.669777 54.193954 63.460825 54.637306 63.229103 55.071283 C 62.997381 55.50392 62.745567 55.924502 62.472323 56.33303 C 62.199078 56.741557 61.907082 57.13669 61.594993 57.51575 C 61.282905 57.896149 60.953405 58.259136 60.606491 58.606049 C 60.259578 58.954302 59.895252 59.283803 59.516192 59.594551 C 59.135793 59.906639 58.741999 60.198636 58.333472 60.47188 C 57.924944 60.745125 57.504362 60.996939 57.070385 61.228661 C 56.637748 61.460383 56.194396 61.670674 55.740327 61.858195 C 55.286259 62.045715 54.824155 62.211805 54.354013 62.353785 C 53.883872 62.497104 53.408373 62.616314 52.926177 62.711414 C 52.44398 62.807853 51.959105 62.880183 51.470212 62.928402 C 50.981318 62.975282 50.491085 62.999392 49.999513 62.999392 C 49.50928 62.999392 49.019048 62.975282 48.530154 62.928402 C 48.041261 62.880183 47.555046 62.807853 47.074189 62.711414 C 46.591993 62.616314 46.116494 62.497104 45.646353 62.353785 C 45.176211 62.211805 44.714107 62.045715 44.260038 61.858195 C 43.80597 61.670674 43.362618 61.460383 42.928641 61.228661 C 42.496004 60.996939 42.075422 60.745125 41.666894 60.47188 C 41.258367 60.198636 40.863234 59.906639 40.484174 59.594551 C 40.103775 59.283803 39.740788 58.954302 39.393875 58.606049 C 39.045622 58.259136 38.716121 57.896149 38.405372 57.51575 C 38.093284 57.13669 37.801288 56.741557 37.528043 56.33303 C 37.254799 55.924502 37.002985 55.50392 36.771263 55.071283 C 36.539541 54.637306 36.32925 54.193954 36.141729 53.739886 C 35.954208 53.285818 35.788118 52.825052 35.646138 52.354911 C 35.502819 51.88477 35.383609 51.407931 35.288509 50.925735 C 35.19207 50.444878 35.119741 49.958664 35.072861 49.46977 C 35.024641 48.980877 35.000531 48.490644 35.000531 48.000411 C 35.000531 47.508839 35.024641 47.018606 35.072861 46.529713 C 35.119741 46.04082 35.19207 45.555944 35.288509 45.073748 C 35.383609 44.591552 35.502819 44.116053 35.646138 43.645912 C 35.788118 43.17577 35.954208 42.713666 36.141729 42.259598 C 36.32925 41.80553 36.539541 41.362177 36.771263 40.92954 C 37.002985 40.495563 37.254799 40.074981 37.528043 39.666454 C 37.801288 39.257926 38.093284 38.864133 38.405372 38.483733 C 38.716121 38.104674 39.045622 37.740348 39.393875 37.393434 C 39.740788 37.046521 40.103775 36.71702 40.484174 36.404932 C 40.863234 36.092844 41.258367 35.800847 41.666894 35.527603 C 42.075422 35.254358 42.496004 35.002545 42.928641 34.770823 C 43.362618 34.539101 43.80597 34.330149 44.260038 34.141289 C 44.714107 33.953768 45.176211 33.789018 45.646353 33.645698 C 46.116494 33.503718 46.591993 33.384509 47.074189 33.288069 C 47.555046 33.192969 48.041261 33.12064 48.530154 33.07242 C 49.019048 33.024201 49.50928 33.000091 49.999513 33.000091 C 50.491085 33.000091 50.981318 33.024201 51.470212 33.07242 C 51.959105 33.12064 52.44398 33.192969 52.926177 33.288069 C 53.408373 33.384509 53.883872 33.503718 54.354013 33.645698 C 54.824155 33.789018 55.286259 33.953768 55.740327 34.141289 C 56.194396 34.330149 56.637748 34.539101 57.070385 34.770823 C 57.504362 35.002545 57.924944 35.254358 58.333472 35.527603 C 58.741999 35.800847 59.135793 36.092844 59.516192 36.404932 C 59.895252 36.71702 60.259578 37.046521 60.606491 37.393434 C 60.953405 37.740348 61.282905 38.104674 61.594993 38.483733 C 61.907082 38.864133 62.199078 39.257926 62.472323 39.666454 C 62.745567 40.074981 62.997381 40.495563 63.229103 40.92954 C 63.460825 41.362177 63.669777 41.80553 63.858637 42.259598 C 64.046158 42.713666 64.210908 43.17577 64.354228 43.645912 C 64.496208 44.116053 64.615417 44.591552 64.711856 45.073748 C 64.806956 45.555944 64.879286 46.04082 64.927505 46.529713 C 64.975725 47.018606 64.999835 47.508839 64.999835 48.000411 Z M 64.999835 48.000411 " stroke="#10b981" stroke-width="2" stroke-opacity="0.3" stroke-miterlimit="4"/><g mask="url(#06191a6c23)"><g transform="matrix(1, 0, 0, 1, 159, 151)"><g clip-path="url(#829b3f7e74)"><path fill="#000000" d="M 3.078125 3.371094 L 32.242188 32.535156 " fill-opacity="1" fill-rule="nonzero"/><g clip-path="url(#015e5ff65e)"><path stroke-linecap="round" transform="matrix(2.916344, 0, 0, 2.916344, -166.069669, -159.942745)" fill="none" stroke-linejoin="miter" d="M 57.999951 55.999512 L 68.000165 65.999725 " stroke="#10b981" stroke-width="2" stroke-opacity="1" stroke-miterlimit="4"/></g></g></g></g><g fill="#000000" fill-opacity="1"><g transform="translate(321.180654, 200.575337)"><g><path d="M 144.34375 9.828125 L 118.890625 9.828125 L 109.984375 -1.859375 C 101.429688 1.796875 92.050781 3.625 81.84375 3.625 C 67.21875 3.625 53.921875 -0.03125 41.953125 -7.34375 C 29.984375 -14.65625 21.3125 -25.726562 15.9375 -40.5625 C 12.550781 -50.425781 10.859375 -60.769531 10.859375 -71.59375 C 10.859375 -72.425781 10.910156 -75.976562 11.015625 -82.25 C 11.117188 -88.53125 13.445312 -96.945312 18 -107.5 C 22.550781 -118.0625 29.484375 -126.894531 38.796875 -134 C 50.867188 -142.550781 64.390625 -146.828125 79.359375 -146.828125 C 79.984375 -146.828125 84.347656 -146.738281 92.453125 -146.5625 C 100.554688 -146.394531 110.75 -141.789062 123.03125 -132.75 C 132.0625 -125.644531 138.882812 -116.609375 143.5 -105.640625 C 148.125 -94.671875 150.4375 -82.910156 150.4375 -70.359375 C 150.4375 -54.015625 146.40625 -39.359375 138.34375 -26.390625 C 134.957031 -21.210938 131.195312 -16.726562 127.0625 -12.9375 Z M 80.1875 -18 C 85.226562 -18 90.367188 -18.894531 95.609375 -20.6875 L 73.25 -49.96875 L 98.703125 -49.96875 L 112.375 -32.078125 C 115.75 -35.867188 118.367188 -40.523438 120.234375 -46.046875 C 122.847656 -53.910156 124.15625 -62.117188 124.15625 -70.671875 C 124.15625 -79.015625 122.84375 -87.046875 120.21875 -94.765625 C 117.601562 -102.492188 113.398438 -109.050781 107.609375 -114.4375 C 101.816406 -119.820312 94.296875 -123.0625 85.046875 -124.15625 C 83.597656 -124.300781 82.1875 -124.375 80.8125 -124.375 C 72.601562 -124.375 65.203125 -122.097656 58.609375 -117.546875 C 52.023438 -112.992188 46.769531 -106.613281 42.84375 -98.40625 C 38.351562 -89.15625 36.109375 -79.492188 36.109375 -69.421875 C 36.109375 -62.390625 37.414062 -55.269531 40.03125 -48.0625 C 42.65625 -40.851562 46.8125 -34.523438 52.5 -29.078125 C 58.195312 -23.628906 65.21875 -20.109375 73.5625 -18.515625 C 75.769531 -18.171875 77.976562 -18 80.1875 -18 Z M 80.1875 -18 "/></g></g></g><g fill="#000000" fill-opacity="1"><g transform="translate(471.111824, 200.575337)"><g><path d="M 167 0.71875 L 140.3125 0.71875 C 136.851562 -9.488281 131.921875 -25.488281 125.515625 -47.28125 L 108.953125 -103.890625 L 92.296875 -47.28125 C 85.878906 -25.550781 80.945312 -9.550781 77.5 0.71875 L 50.796875 0.71875 L 11.90625 -142.78125 L 38.078125 -142.78125 L 65.5 -37.453125 L 95.8125 -142.78125 L 121.984375 -142.78125 L 152.3125 -37.453125 L 179.734375 -142.78125 L 205.90625 -142.78125 Z M 167 0.71875 "/></g></g></g><g fill="#000000" fill-opacity="1"><g transform="translate(688.920721, 200.575337)"><g><path d="M 105.84375 0 L 15 0 L 15 -142.78125 L 105.84375 -142.78125 L 105.84375 -121.578125 L 39.015625 -121.578125 L 39.015625 -82.5625 L 99.53125 -82.5625 L 99.53125 -61.359375 L 39.015625 -61.359375 L 39.015625 -21.3125 L 105.84375 -21.3125 Z M 105.84375 0 "/></g></g></g><g fill="#000000" fill-opacity="1"><g transform="translate(808.224137, 200.575337)"><g><path d="M 59.28125 0.3125 L 31.34375 0.203125 C 27.625 0.273438 22.175781 0.3125 15 0.3125 L 15 -143.09375 L 45.015625 -143.203125 C 52.046875 -143.203125 59.007812 -143.132812 65.90625 -143 C 80.8125 -142.851562 93.503906 -140.128906 103.984375 -134.828125 C 118.398438 -127.578125 128.367188 -116.398438 133.890625 -101.296875 C 137.265625 -91.503906 138.953125 -81.78125 138.953125 -72.125 C 138.953125 -61.21875 136.816406 -50.382812 132.546875 -39.625 C 124.546875 -20.519531 109.539062 -8.273438 87.53125 -2.890625 C 78.289062 -0.753906 68.875 0.3125 59.28125 0.3125 Z M 51.625 -20.59375 C 57.21875 -20.59375 61.671875 -20.660156 64.984375 -20.796875 C 90.160156 -22.035156 105.578125 -33.109375 111.234375 -54.015625 C 112.816406 -59.941406 113.609375 -65.90625 113.609375 -71.90625 C 113.609375 -77.707031 112.847656 -83.535156 111.328125 -89.390625 C 107.054688 -105.609375 97.125 -115.890625 81.53125 -120.234375 C 75.320312 -121.546875 69.695312 -122.285156 64.65625 -122.453125 C 59.625 -122.628906 55.421875 -122.71875 52.046875 -122.71875 L 39.015625 -122.40625 L 39.015625 -20.6875 Z M 51.625 -20.59375 "/></g></g></g><g fill="#000000" fill-opacity="1"><g transform="translate(956.499739, 200.575337)"><g><path d="M 88.78125 -45.53125 L 15 -45.53125 L 15 -65.59375 L 88.78125 -65.59375 Z M 88.78125 -45.53125 "/></g></g></g><g fill="#000000" fill-opacity="1"><g transform="translate(1060.282331, 200.575337)"><g><path d="M 144.75 0 L 118.46875 0 L 106.0625 -34.875 L 47.90625 -34.875 L 35.484375 0 L 9.3125 0 L 61.765625 -142.6875 L 92.1875 -142.6875 Z M 99.234375 -56.078125 L 76.984375 -120.125 L 54.84375 -56.078125 Z M 99.234375 -56.078125 "/></g></g></g><g fill="#000000" fill-opacity="1"><g transform="translate(1214.352348, 200.575337)"><g><path d="M 39.109375 0 L 15 0 L 15 -142.78125 L 39.109375 -142.78125 Z M 39.109375 0 "/></g></g></g></svg>