<svg xmlns="http://www.w3.org/2000/svg" xmlns:xlink="http://www.w3.org/1999/xlink" width="1682" zoomAndPan="magnify" viewBox="0 0 1261.5 275.999989" height="368" preserveAspectRatio="xMidYMid meet" version="1.0"><defs><filter x="0%" y="0%" width="100%" height="100%" id="d99717e409"><feColorMatrix values="0 0 0 0 1 0 0 0 0 1 0 0 0 0 1 0 0 0 1 0" color-interpolation-filters="sRGB"/></filter><g/><clipPath id="53c156163b"><path d="M 0 0.0546875 L 275.890625 0.0546875 L 275.890625 275.945312 L 0 275.945312 Z M 0 0.0546875 " clip-rule="nonzero"/></clipPath><mask id="d0cd5394c9"><g filter="url(#d99717e409)"><rect x="-126.15" width="1513.8" fill="#000000" y="-27.599999" height="331.199987" fill-opacity="0.3"/></g></mask><clipPath id="bdfd3fc057"><path d="M 0.136719 0.675781 L 33.484375 0.675781 L 33.484375 34.019531 L 0.136719 34.019531 Z M 0.136719 0.675781 " clip-rule="nonzero"/></clipPath><clipPath id="345c0492ce"><rect x="0" width="34" y="0" height="35"/></clipPath></defs><path fill="#10b981" d="M 137.945312 13.847656 L 248.300781 55.234375 L 248.300781 138 C 248.300781 206.972656 137.945312 262.152344 137.945312 262.152344 C 137.945312 262.152344 27.589844 206.972656 27.589844 138 L 27.589844 55.234375 Z M 137.945312 13.847656 " fill-opacity="0.2" fill-rule="nonzero"/><g clip-path="url(#53c156163b)"><path stroke-linecap="butt" transform="matrix(2.758906, 0, 0, 2.758906, 0.000000000000042616, 0.0546696)" fill="none" stroke-linejoin="miter" d="M 49.999998 4.99944 L 89.999712 20.000572 L 89.999712 50.000004 C 89.999712 75.000003 49.999998 95.000568 49.999998 95.000568 C 49.999998 95.000568 10.000283 75.000003 10.000283 50.000004 L 10.000283 20.000572 Z M 49.999998 4.99944 " stroke="#10b981" stroke-width="3" stroke-opacity="1" stroke-miterlimit="4"/></g><path stroke-linecap="round" transform="matrix(2.758906, 0, 0, 2.758906, 0.000000000000042616, 0.0546696)" fill="none" stroke-linejoin="round" d="M 29.999432 50.000004 L 45.000564 64.99972 L 70.000563 35.000288 " stroke="#10b981" stroke-width="6" stroke-opacity="1" stroke-miterlimit="4"/><path stroke-linecap="butt" transform="matrix(2.758906, 0, 0, 2.758906, 0.000000000000042616, 0.0546696)" fill="none" stroke-linejoin="miter" d="M 64.999714 47.999381 C 64.999714 48.490688 64.975644 48.981994 64.927504 49.470469 C 64.879365 49.958944 64.807156 50.444587 64.712292 50.925982 C 64.616013 51.408794 64.49708 51.884526 64.354077 52.354594 C 64.211075 52.824663 64.046834 53.286236 63.858523 53.74073 C 63.670213 54.193808 63.460664 54.638391 63.228462 55.071647 C 62.997675 55.504903 62.74565 55.925416 62.472388 56.333186 C 62.199125 56.742372 61.907456 57.135984 61.594549 57.515437 C 61.283058 57.896305 60.954576 58.258768 60.606272 58.607072 C 60.259384 58.95396 59.895506 59.283857 59.516053 59.595348 C 59.1366 59.906839 58.741573 60.198508 58.333802 60.471771 C 57.924616 60.745034 57.504103 60.997059 57.070847 61.229261 C 56.637591 61.460048 56.194424 61.669596 55.73993 61.857907 C 55.286852 62.046217 54.823863 62.211874 54.353795 62.353461 C 53.883726 62.496464 53.407994 62.615397 52.926599 62.711676 C 52.445203 62.807955 51.95956 62.880164 51.46967 62.928304 C 50.981195 62.976443 50.491304 63.000513 49.999998 63.000513 C 49.508691 63.000513 49.0188 62.976443 48.530326 62.928304 C 48.040435 62.880164 47.554792 62.807955 47.073396 62.711676 C 46.592001 62.615397 46.116269 62.496464 45.6462 62.353461 C 45.176132 62.211874 44.713143 62.046217 44.260065 61.857907 C 43.805571 61.669596 43.362404 61.460048 42.929148 61.229261 C 42.495892 60.997059 42.075379 60.745034 41.666193 60.471771 C 41.258422 60.198508 40.863395 59.906839 40.483942 59.595348 C 40.104489 59.283857 39.740611 58.95396 39.393723 58.607072 C 39.045419 58.258768 38.716938 57.896305 38.405446 57.515437 C 38.092539 57.135984 37.80087 56.742372 37.527608 56.333186 C 37.254345 55.925416 37.00232 55.504903 36.771534 55.071647 C 36.539331 54.638391 36.329782 54.193808 36.141472 53.74073 C 35.953161 53.286236 35.788921 52.824663 35.645918 52.354594 C 35.502915 51.884526 35.383982 51.408794 35.287703 50.925982 C 35.19284 50.444587 35.12063 49.958944 35.072491 49.470469 C 35.024351 48.981994 35.000281 48.490688 35.000281 47.999381 C 35.000281 47.508075 35.024351 47.018184 35.072491 46.529709 C 35.12063 46.041234 35.19284 45.555591 35.287703 45.074196 C 35.383982 44.591385 35.502915 44.115653 35.645918 43.645584 C 35.788921 43.175516 35.953161 42.713942 36.141472 42.259448 C 36.329782 41.80637 36.539331 41.361787 36.771534 40.928531 C 37.00232 40.495276 37.254345 40.074762 37.527608 39.666992 C 37.80087 39.257806 38.092539 38.864194 38.405446 38.484742 C 38.716938 38.103873 39.045419 37.74141 39.393723 37.393107 C 39.740611 37.046219 40.104489 36.716321 40.483942 36.40483 C 40.863395 36.093339 41.258422 35.800254 41.666193 35.528407 C 42.075379 35.255144 42.495892 35.00312 42.929148 34.770917 C 43.362404 34.540131 43.805571 34.329166 44.260065 34.142271 C 44.713143 33.953961 45.176132 33.788304 45.6462 33.645301 C 46.116269 33.503714 46.592001 33.383366 47.073396 33.288502 C 47.554792 33.192223 48.040435 33.120014 48.530326 33.071874 C 49.0188 33.023735 49.508691 32.999665 49.999998 32.999665 C 50.491304 32.999665 50.981195 33.023735 51.46967 33.071874 C 51.95956 33.120014 52.445203 33.192223 52.926599 33.288502 C 53.407994 33.383366 53.883726 33.503714 54.353795 33.645301 C 54.823863 33.788304 55.286852 33.953961 55.73993 34.142271 C 56.194424 34.329166 56.637591 34.540131 57.070847 34.770917 C 57.504103 35.00312 57.924616 35.255144 58.333802 35.528407 C 58.741573 35.800254 59.1366 36.093339 59.516053 36.40483 C 59.895506 36.716321 60.259384 37.046219 60.606272 37.393107 C 60.954576 37.74141 61.283058 38.103873 61.594549 38.484742 C 61.907456 38.864194 62.199125 39.257806 62.472388 39.666992 C 62.74565 40.074762 62.997675 40.495276 63.228462 40.928531 C 63.460664 41.361787 63.670213 41.80637 63.858523 42.259448 C 64.046834 42.713942 64.211075 43.175516 64.354077 43.645584 C 64.49708 44.115653 64.616013 44.591385 64.712292 45.074196 C 64.807156 45.555591 64.879365 46.041234 64.927504 46.529709 C 64.975644 47.018184 64.999714 47.508075 64.999714 47.999381 Z M 64.999714 47.999381 " stroke="#10b981" stroke-width="2" stroke-opacity="0.3" stroke-miterlimit="4"/><g mask="url(#d0cd5394c9)"><g transform="matrix(1, 0, 0, 1, 157, 151)"><g clip-path="url(#345c0492ce)"><path fill="#000000" d="M 3.015625 3.554688 L 30.605469 31.140625 " fill-opacity="1" fill-rule="nonzero"/><g clip-path="url(#bdfd3fc057)"><path stroke-linecap="round" transform="matrix(2.758906, 0, 0, 2.758906, -157, -150.94533)" fill="none" stroke-linejoin="miter" d="M 57.999657 56.000457 L 67.99994 65.999324 " stroke="#10b981" stroke-width="2" stroke-opacity="1" stroke-miterlimit="4"/></g></g></g></g><g fill="#000000" fill-opacity="1"><g transform="translate(336.869856, 211.209145)"><g><path d="M 124.84375 39.109375 C 111.019531 39.109375 99.539062 35.773438 90.40625 29.109375 C 81.269531 22.453125 75.128906 13.179688 71.984375 1.296875 C 60.023438 -0.429688 49.582031 -4.5 40.65625 -10.90625 C 31.738281 -17.3125 24.789062 -26.171875 19.8125 -37.484375 C 14.84375 -48.804688 12.359375 -62.488281 12.359375 -78.53125 C 12.359375 -96.507812 15.472656 -111.53125 21.703125 -123.59375 C 27.929688 -135.664062 36.539062 -144.640625 47.53125 -150.515625 C 58.53125 -156.390625 71.226562 -159.328125 85.625 -159.328125 C 100.019531 -159.328125 112.695312 -156.40625 123.65625 -150.5625 C 134.613281 -144.726562 143.191406 -135.757812 149.390625 -123.65625 C 155.585938 -111.550781 158.6875 -96.507812 158.6875 -78.53125 C 158.6875 -55.039062 153.65625 -37.007812 143.59375 -24.4375 C 133.53125 -11.875 119.398438 -4.050781 101.203125 -0.96875 L 100.671875 1.1875 C 102.890625 4.976562 106.203125 7.894531 110.609375 9.9375 C 115.015625 11.976562 120.15625 13 126.03125 13 C 130.75 13 135.007812 12.390625 138.8125 11.171875 L 140.953125 11.609375 L 145.359375 35.890625 C 143.066406 36.742188 139.988281 37.492188 136.125 38.140625 C 132.257812 38.785156 128.5 39.109375 124.84375 39.109375 Z M 85.625 -24.703125 C 98.945312 -24.703125 109.117188 -28.984375 116.140625 -37.546875 C 123.160156 -46.109375 126.671875 -59.769531 126.671875 -78.53125 C 126.671875 -97.300781 123.160156 -110.984375 116.140625 -119.578125 C 109.117188 -128.171875 98.945312 -132.46875 85.625 -132.46875 C 72.226562 -132.46875 62.003906 -128.171875 54.953125 -119.578125 C 47.898438 -110.984375 44.375 -97.300781 44.375 -78.53125 C 44.375 -59.769531 47.898438 -46.109375 54.953125 -37.546875 C 62.003906 -28.984375 72.226562 -24.703125 85.625 -24.703125 Z M 85.625 -24.703125 "/></g></g></g><g fill="#000000" fill-opacity="1"><g transform="translate(507.586702, 211.209145)"><g><path d="M 74.984375 0 L 40.28125 0 L 4.296875 -157.078125 L 35.234375 -157.078125 L 58.984375 -46.625 L 61.671875 -46.625 L 89.8125 -157.078125 L 116.359375 -157.078125 L 145.046875 -46.625 L 147.71875 -46.625 L 171.578125 -157.078125 L 201.4375 -157.078125 L 165.5625 0 L 130.75 0 L 103.25 -101.3125 L 100.984375 -101.3125 Z M 74.984375 0 "/></g></g></g><g fill="#000000" fill-opacity="1"><g transform="translate(713.220432, 211.209145)"><g><path d="M 51.46875 -68.96875 L 51.46875 -26 L 126.453125 -26 L 126.453125 0 L 20.40625 0 L 20.40625 -157.078125 L 124.734375 -157.078125 L 124.734375 -131.078125 L 51.46875 -131.078125 L 51.46875 -94.328125 L 115.5 -94.328125 L 115.5 -68.96875 Z M 51.46875 -68.96875 "/></g></g></g><g fill="#000000" fill-opacity="1"><g transform="translate(848.268293, 211.209145)"><g><path d="M 76.921875 -157.078125 C 102.421875 -157.078125 121.882812 -150.484375 135.3125 -137.296875 C 148.75 -124.117188 155.46875 -104.53125 155.46875 -78.53125 C 155.46875 -52.601562 148.75 -33.03125 135.3125 -19.8125 C 121.882812 -6.601562 102.421875 0 76.921875 0 L 20.40625 0 L 20.40625 -157.078125 Z M 75.09375 -26.109375 C 91.28125 -26.109375 103.382812 -30.242188 111.40625 -38.515625 C 119.425781 -46.785156 123.4375 -60.125 123.4375 -78.53125 C 123.4375 -96.9375 119.425781 -110.273438 111.40625 -118.546875 C 103.382812 -126.828125 91.28125 -130.96875 75.09375 -130.96875 L 51.46875 -130.96875 L 51.46875 -26.109375 Z M 75.09375 -26.109375 "/></g></g></g></svg>